<?xml version="1.0" standalone="no"?><!DOCTYPE svg PUBLIC "-//W3C//DTD SVG 1.1//EN" "http://www.w3.org/Graphics/SVG/1.1/DTD/svg11.dtd"><svg t="1723872681524" class="icon" viewBox="0 0 1024 1024" version="1.1" xmlns="http://www.w3.org/2000/svg" p-id="18450" xmlns:xlink="http://www.w3.org/1999/xlink" width="200" height="200"><path d="M844.08 800.84c169.56-169.56 135.9-447.36-6.29-630.88-19.37-25-56.38-27.12-78.74-4.77 0 0-267.55 250.1-362.28 341.05-101.82 97.77-224.07 245.3-224.07 245.3-22.36 22.36-20.23 59.37 4.77 78.74 183.52 142.19 497.06 140.12 666.61-29.44z" fill="#FF4F51" p-id="18451"></path><path d="M739.4 434.15c-7.41-7.41-18.69-12.85-30.17-14.54-13.11-1.93-24.45 1.12-31.92 8.58-7.47 7.47-10.52 18.8-8.58 31.92 1.69 11.48 7.12 22.76 14.54 30.17 7.5 7.5 17.46 11.63 28.07 11.63 10.6 0 20.57-4.13 28.07-11.63 7.5-7.5 11.63-17.46 11.63-28.07-0.01-10.6-4.14-20.56-11.64-28.06zM445.95 616.69c-13.12-1.93-24.45 1.12-31.92 8.58-7.47 7.47-10.52 18.8-8.58 31.92 1.69 11.48 7.12 22.76 14.54 30.17 7.5 7.5 17.46 11.63 28.07 11.63 10.6 0 20.57-4.13 28.07-11.63 15.48-15.48 15.48-40.66 0-56.13-7.42-7.42-18.7-12.85-30.18-14.54zM600.8 585.3c-15.55 15.55-9.45 46.68 5.96 62.09 7.74 7.74 17.9 11.61 28.07 11.61s20.33-3.87 28.07-11.61c15.48-15.48 15.48-40.66 0-56.13-15.41-15.41-46.55-21.51-62.1-5.96z" fill="#D12C34" p-id="18452"></path><path d="M727.4 422.15c-7.41-7.41-18.69-12.85-30.17-14.54-13.11-1.93-24.45 1.12-31.92 8.58-7.47 7.47-10.52 18.8-8.58 31.92 1.69 11.48 7.12 22.76 14.54 30.17 7.5 7.5 17.46 11.63 28.07 11.63 10.6 0 20.57-4.13 28.07-11.63 7.5-7.5 11.63-17.46 11.63-28.07-0.01-10.6-4.14-20.56-11.64-28.06z" fill="#FFFFFF" p-id="18453"></path><path d="M433.95 604.69c-13.12-1.93-24.45 1.12-31.92 8.58-7.47 7.47-10.52 18.8-8.58 31.92 1.69 11.48 7.12 22.76 14.54 30.17 7.5 7.5 17.46 11.63 28.07 11.63 10.6 0 20.57-4.13 28.07-11.63 15.48-15.48 15.48-40.66 0-56.13-7.42-7.42-18.7-12.85-30.18-14.54z" fill="#FFFFFF" p-id="18454"></path><path d="M588.8 573.3c-15.55 15.55-9.45 46.68 5.96 62.09 7.74 7.74 17.9 11.61 28.07 11.61s20.33-3.87 28.07-11.61c15.48-15.48 15.48-40.66 0-56.13-15.41-15.41-46.55-21.51-62.1-5.96z" fill="#FFFFFF" p-id="18455"></path><path d="M837.79 169.96c-19.37-25-56.38-27.12-78.74-4.77 0 0-8.2 7.66-22.21 20.78 111.38 150.52 147.04 387.35 10.95 523.44-136.63 136.63-399.32 124.64-550.44 12.9-15.44 18.11-24.64 29.22-24.64 29.22-22.36 22.36-20.23 59.37 4.77 78.74 183.51 142.19 497.06 140.11 666.61-29.44 169.55-169.54 135.89-447.35-6.3-630.87z" fill="#739E20" p-id="18456"></path><path d="M804.08 760.84c162.6-162.6 138.31-424.74 10.66-607.82-18.58-6.89-40.51-3.01-55.69 12.17 0 0-8.2 7.66-22.21 20.78 111.38 150.52 147.04 387.35 10.95 523.44-136.63 136.63-399.32 124.64-550.44 12.9-15.44 18.11-24.64 29.22-24.64 29.22-15.07 15.07-19 36.8-12.31 55.3 185.75 125.2 480.99 116.7 643.68-45.99z" fill="#84B72C" p-id="18457"></path></svg>